<?xml version="1.0" encoding="UTF-8"?>
<svg version="1.1" xmlns="http://www.w3.org/2000/svg" width="500" height="500">
<path d="M0 0 C165 0 330 0 500 0 C500 165 500 330 500 500 C335 500 170 500 0 500 C0 335 0 170 0 0 Z " fill="#FEFEFE" transform="translate(0,0)"/>
<path d="M0 0 C1.01975922 -0.00392761 1.01975922 -0.00392761 2.06011963 -0.00793457 C12.64021182 -0.01231181 21.696356 1.02508225 31.75 4.3125 C34.30949408 5.00210462 36.86602241 5.67218041 39.4375 6.3125 C40.07848633 6.47500244 40.71947266 6.63750488 41.37988281 6.80493164 C50.41316363 9.0456001 59.58856688 10.68935163 68.75 12.3125 C70.19898682 12.58054443 70.19898682 12.58054443 71.67724609 12.85400391 C93.5971652 16.12474982 122.70442738 13.33528631 142.75 3.3125 C153.47435982 2.36440442 162.54354659 4.43215119 172.75 7.3125 C174.83126198 7.84154981 176.91444378 8.36314025 179 8.875 C181.88440349 9.58930719 184.76103849 10.31549552 187.62890625 11.09375 C213.35149899 17.94397443 236.55610008 15.6467242 261.75 8.3125 C263.02733961 42.61143397 251.25302569 75.36107352 228.75 101.3125 C227.68845703 102.55580078 227.68845703 102.55580078 226.60546875 103.82421875 C203.67590224 130.0466477 172.2484233 145.97056218 137.75 150.3125 C96.94443451 152.31969418 59.7597574 143.67981228 28.60888672 115.84448242 C14.70236682 103.09785485 4.48401238 88.94509749 -4.25 72.3125 C-4.60771484 71.64283203 -4.96542969 70.97316406 -5.33398438 70.28320312 C-16.56250137 48.84316975 -19.47997043 25.21807916 -18.25 1.3125 C-12.37613219 -0.46775859 -6.08178074 0.02218765 0 0 Z " fill="#0F5387" transform="translate(128.25,222.6875)"/>
<path d="M0 0 C1.01975922 -0.00392761 1.01975922 -0.00392761 2.06011963 -0.00793457 C12.64021182 -0.01231181 21.696356 1.02508225 31.75 4.3125 C34.30949408 5.00210462 36.86602241 5.67218041 39.4375 6.3125 C40.07848633 6.47500244 40.71947266 6.63750488 41.37988281 6.80493164 C50.41316363 9.0456001 59.58856688 10.68935163 68.75 12.3125 C70.19898682 12.58054443 70.19898682 12.58054443 71.67724609 12.85400391 C93.5971652 16.12474982 122.70442738 13.33528631 142.75 3.3125 C153.47435982 2.36440442 162.54354659 4.43215119 172.75 7.3125 C174.83126198 7.84154981 176.91444378 8.36314025 179 8.875 C181.88440349 9.58930719 184.76103849 10.31549552 187.62890625 11.09375 C213.35149899 17.94397443 236.55610008 15.6467242 261.75 8.3125 C262.07934112 17.15591898 261.79710769 25.62655657 260.4375 34.375 C260.31979248 35.15915283 260.20208496 35.94330566 260.08081055 36.7512207 C259.05387803 42.89770418 257.87975027 48.37464746 253.10546875 52.71875 C252.06003906 53.4096875 251.01460938 54.100625 249.9375 54.8125 C249.37144043 55.18705322 248.80538086 55.56160645 248.22216797 55.94750977 C235.01157156 64.47988153 221.80176885 70.21096846 205.75 68.3125 C187.76467294 63.76327021 172.84232273 47.55974472 162.23046875 33.046875 C159.79547546 30.19427072 157.12638797 28.90513584 153.75 27.3125 C152.80060547 26.77689453 152.80060547 26.77689453 151.83203125 26.23046875 C143.27397145 22.45721537 131.49688077 26.54860155 123.3125 29.625 C119.26873403 31.23401306 115.31146835 32.95832397 111.375 34.8125 C104.69597183 37.90860927 97.76616986 40.12985943 90.75 42.3125 C89.78964844 42.61285156 88.82929688 42.91320312 87.83984375 43.22265625 C58.44632089 51.83725279 28.25725198 47.23763866 -0.3359375 38.19140625 C-3.64650885 37.19290953 -6.96207153 36.40234328 -10.34765625 35.70703125 C-12.33073151 35.29575692 -14.28664997 34.80862492 -16.25 34.3125 C-18.4476252 27.25241275 -18.4845459 20.66892856 -18.375 13.3125 C-18.36597656 12.15621094 -18.35695313 10.99992188 -18.34765625 9.80859375 C-18.32424922 6.97634353 -18.29145995 4.14453381 -18.25 1.3125 C-12.37613219 -0.46775859 -6.08178074 0.02218765 0 0 Z " fill="#0A376F" transform="translate(128.25,222.6875)"/>
<path d="M0 0 C4.56342852 3.55678988 8.02568219 7.26698355 11.5 11.875 C12.46666887 13.12560257 13.43410772 14.37561036 14.40234375 15.625 C15.26843489 16.74984163 16.13434568 17.87482217 17 19 C26.41680031 31.17877176 40.58164609 40.80713643 55.99438477 43.32592773 C75.41688663 45.5068685 95.49754149 44.49454743 114.375 39.3125 C128.25363968 35.92437256 144.34987885 35.97215491 157 43 C157.94746094 43.51949219 158.89492188 44.03898437 159.87109375 44.57421875 C165.59587296 47.98050208 170.46572134 52.01281267 175.3359375 56.53515625 C186.85873986 67.19628277 197.1831571 75.90185551 213 79 C209.89343597 82.44240879 206.50247287 84.67077482 202.4375 86.8125 C201.78765137 87.15506836 201.13780273 87.49763672 200.46826172 87.85058594 C167.59749198 104.64586975 127.42196945 108.71069234 92.171875 97.4921875 C55.25906363 85.0819095 26.71531078 59.51652663 9 25 C7.44413438 21.83673276 5.95402093 18.64875316 4.5 15.4375 C3.99255249 14.33148438 3.99255249 14.33148438 3.47485352 13.203125 C1.51995083 8.76021033 0.45757793 4.83634456 0 0 Z " fill="#538AAD" transform="translate(115,270)"/>
<path d="M0 0 C5.71273967 2.4356642 9.31179046 6.72258175 11.640625 12.421875 C12.72143581 18.33911981 12.54034797 23.63107293 9.515625 28.921875 C7.02727342 32.34424967 4.31523239 34.37093134 0.640625 36.421875 C2.950625 36.751875 5.260625 37.081875 7.640625 37.421875 C7.640625 39.731875 7.640625 42.041875 7.640625 44.421875 C0.380625 44.421875 -6.879375 44.421875 -14.359375 44.421875 C-12.359375 39.421875 -12.359375 39.421875 -11.359375 37.421875 C-12.060625 37.339375 -12.761875 37.256875 -13.484375 37.171875 C-18.06467802 35.97701334 -21.12713738 34.21539363 -23.8515625 30.25 C-26.90268932 24.69936251 -28.60979764 19.74476686 -27.359375 13.421875 C-23.14104678 1.31279165 -11.8691473 -2.90833411 0 0 Z " fill="#0F3A71" transform="translate(237.359375,132.578125)"/>
<path d="M0 0 C2.41579015 2.19640935 3.81294961 4.28060457 5.234375 7.2109375 C5.64059082 8.03803223 6.04680664 8.86512695 6.46533203 9.71728516 C6.88927246 10.59433105 7.31321289 11.47137695 7.75 12.375 C11.27839151 19.57323012 14.91436681 26.66215985 18.8203125 33.6640625 C20 36 20 36 20 38 C17.36 38 14.72 38 12 38 C11.34 36.35 10.68 34.7 10 33 C3.73 33.33 -2.54 33.66 -9 34 C-9.66 35.32 -10.32 36.64 -11 38 C-13.64 38 -16.28 38 -19 38 C-17.57124113 33.291292 -15.6118364 29.01576262 -13.33984375 24.66796875 C-12.9899086 23.99075272 -12.63997345 23.31353668 -12.2794342 22.61579895 C-11.54437565 21.19535974 -10.80723576 19.77599584 -10.06811523 18.35766602 C-8.93311616 16.1790854 -7.80492432 13.99708271 -6.67773438 11.81445312 C-5.96133063 10.43208786 -5.24454729 9.04991923 -4.52734375 7.66796875 C-4.01952614 6.68681343 -4.01952614 6.68681343 -3.50144958 5.68583679 C-1.11640462 1.11640462 -1.11640462 1.11640462 0 0 Z " fill="#103C72" transform="translate(313,132)"/>
<path d="M0 0 C2.41579015 2.19640935 3.81294961 4.28060457 5.234375 7.2109375 C5.64059082 8.03803223 6.04680664 8.86512695 6.46533203 9.71728516 C6.88927246 10.59433105 7.31321289 11.47137695 7.75 12.375 C11.27839151 19.57323012 14.91436681 26.66215985 18.8203125 33.6640625 C20 36 20 36 20 38 C17.36 38 14.72 38 12 38 C11.34 36.35 10.68 34.7 10 33 C3.73 33.33 -2.54 33.66 -9 34 C-9.66 35.32 -10.32 36.64 -11 38 C-13.64 38 -16.28 38 -19 38 C-17.57124113 33.291292 -15.6118364 29.01576262 -13.33984375 24.66796875 C-12.9899086 23.99075272 -12.63997345 23.31353668 -12.2794342 22.61579895 C-11.54437565 21.19535974 -10.80723576 19.77599584 -10.06811523 18.35766602 C-8.93311616 16.1790854 -7.80492432 13.99708271 -6.67773438 11.81445312 C-5.96133063 10.43208786 -5.24454729 9.04991923 -4.52734375 7.66796875 C-4.01952614 6.68681343 -4.01952614 6.68681343 -3.50144958 5.68583679 C-1.11640462 1.11640462 -1.11640462 1.11640462 0 0 Z " fill="#103C72" transform="translate(186,132)"/>
<path d="M0 0 C2.64 0 5.28 0 8 0 C8.01401855 1.15000488 8.01401855 1.15000488 8.02832031 2.32324219 C8.08202773 5.79948103 8.16567576 9.27437474 8.25 12.75 C8.26417969 13.9565625 8.27835937 15.163125 8.29296875 16.40625 C8.32519531 17.56640625 8.35742188 18.7265625 8.390625 19.921875 C8.41157227 20.99018555 8.43251953 22.05849609 8.45410156 23.15917969 C9.12746562 26.66332287 10.18135576 27.86550496 13 30 C16.5 30.66666667 16.5 30.66666667 20 30 C22.81864424 27.86550496 23.87253438 26.66332287 24.54589844 23.15917969 C24.5668457 22.09086914 24.58779297 21.02255859 24.609375 19.921875 C24.64160156 18.76171875 24.67382812 17.6015625 24.70703125 16.40625 C24.72830078 14.59640625 24.72830078 14.59640625 24.75 12.75 C24.77964844 11.52796875 24.80929687 10.3059375 24.83984375 9.046875 C24.91052402 6.03118356 24.96323175 3.0162645 25 0 C27.64 0 30.28 0 33 0 C33.11703447 4.16642697 33.18753101 8.3324259 33.25 12.5 C33.30027344 14.25957031 33.30027344 14.25957031 33.3515625 16.0546875 C33.44663086 24.51577173 32.67865893 30.22701648 26.5625 36.5 C20.04273659 39.24516354 12.99017844 39.20656323 6.4375 36.5625 C0.52742572 30.34934499 -0.44958166 23.67839907 -0.3515625 15.32226562 C-0.31804687 14.20529297 -0.28453125 13.08832031 -0.25 11.9375 C-0.23195312 10.78572266 -0.21390625 9.63394531 -0.1953125 8.44726562 C-0.14856322 5.63062166 -0.08305157 2.81576771 0 0 Z " fill="#103C72" transform="translate(256,132)"/>
<path d="M0 0 C12.77777778 0 12.77777778 0 18 4 C20.61380091 8.18383569 20.54010283 12.20765901 20 17 C18.6660509 20.40898103 17.45235965 21.67203925 14.5 23.8125 C11 25 11 25 0 25 C0 16.75 0 8.5 0 0 Z " fill="#EDF1F4" transform="translate(156,186)"/>
<path d="M0 0 C2.70552388 2.19823815 4.44778333 3.89556667 6 7 C6.40156418 12.2203344 5.90046338 15.59929694 3 20 C0.06791771 22.44340191 -1.68822321 22.96659534 -5.5 23.375 C-9.31177679 22.96659534 -11.06791771 22.44340191 -14 20 C-16.88868756 15.6171637 -17.56796579 12.20635305 -17 7 C-15.68407862 3.95260312 -14.35508251 2.3133081 -11.875 0.125 C-7.72812429 -1.4976905 -4.24627208 -1.28465115 0 0 Z " fill="#F9FAFB" transform="translate(235,140)"/>
<path d="M0 0 C10.16 0 10.16 0 14 3 C15 4 15 4 15.25 7.25 C14.99026663 11.14600061 14.26032469 12.89205355 12 16 C13.65 18.64 15.3 21.28 17 24 C15.68 24.33 14.36 24.66 13 25 C12.69707031 24.43410156 12.39414063 23.86820313 12.08203125 23.28515625 C9.59011363 18.58418046 9.59011363 18.58418046 5.1875 16 C4.465625 16 3.74375 16 3 16 C3 18.97 3 21.94 3 25 C2.01 25 1.02 25 0 25 C0 16.75 0 8.5 0 0 Z " fill="#113C72" transform="translate(184,186)"/>
<path d="M0 0 C6.00863999 5.15026284 11.45697247 10.38104059 17 16 C17.33 10.72 17.66 5.44 18 0 C19.32 0 20.64 0 22 0 C22 8.58 22 17.16 22 26 C17.49272131 22.13661827 13.20186948 18.33818181 9.0625 14.125 C7.391875 12.43375 5.72125 10.7425 4 9 C3.67 14.28 3.34 19.56 3 25 C2.01 25 1.02 25 0 25 C0 16.75 0 8.5 0 0 Z " fill="#224A7C" transform="translate(324,186)"/>
<path d="M0 0 C3.66489537 1.83244768 4.84862885 2.69439639 7.3125 5.6875 C10.68560806 9.68120154 14.26612653 13.34232803 18 17 C18.33 11.39 18.66 5.78 19 0 C19.99 0 20.98 0 22 0 C22 8.25 22 16.5 22 25 C15.99136001 19.84973716 10.54302753 14.61895941 5 9 C4.67 14.28 4.34 19.56 4 25 C2.68 25 1.36 25 0 25 C0 16.75 0 8.5 0 0 Z " fill="#1B4478" transform="translate(232,186)"/>
<path d="M0 0 C2.2471673 2.2471673 2.96808619 4.0061752 4.1640625 6.9375 C4.56367188 7.91460937 4.96328125 8.89171875 5.375 9.8984375 C5.7875 10.92195312 6.2 11.94546875 6.625 13 C7.25535156 14.53527344 7.25535156 14.53527344 7.8984375 16.1015625 C11 23.73462865 11 23.73462865 11 26 C9.68 26 8.36 26 7 26 C6.34 24.35 5.68 22.7 5 21 C1.7 21 -1.6 21 -5 21 C-5.99 23.475 -5.99 23.475 -7 26 C-7.99 26 -8.98 26 -10 26 C-9.39038113 22.53471696 -8.49835807 19.43465819 -7.1875 16.171875 C-6.83429688 15.29015625 -6.48109375 14.4084375 -6.1171875 13.5 C-5.74851562 12.5925 -5.37984375 11.685 -5 10.75 C-4.63132812 9.82703125 -4.26265625 8.9040625 -3.8828125 7.953125 C-1.13585283 1.13585283 -1.13585283 1.13585283 0 0 Z " fill="#21497C" transform="translate(271,185)"/>
<path d="M0 0 C2.6741653 2.35124722 3.89440638 4.61705872 5.26171875 7.88671875 C5.65810547 8.82451172 6.05449219 9.76230469 6.46289062 10.72851562 C7.06907227 12.19321289 7.06907227 12.19321289 7.6875 13.6875 C8.10322266 14.67556641 8.51894531 15.66363281 8.94726562 16.68164062 C9.97142239 19.11842741 10.98870265 21.55785486 12 24 C10.68 24.33 9.36 24.66 8 25 C7.34 23.02 6.68 21.04 6 19 C2.37 19 -1.26 19 -5 19 C-5.33 20.65 -5.66 22.3 -6 24 C-7.32 24.33 -8.64 24.66 -10 25 C-7.37589493 16.35588919 -3.68616238 8.23074615 0 0 Z " fill="#1F487B" transform="translate(138,186)"/>
<path d="M0 0 C12.77777778 0 12.77777778 0 18 4 C20.61380091 8.18383569 20.54010283 12.20765901 20 17 C18.6660509 20.40898103 17.45235965 21.67203925 14.5 23.8125 C11 25 11 25 0 25 C0 16.75 0 8.5 0 0 Z M3 3 C3 9.27 3 15.54 3 22 C9.89106551 22.21544885 9.89106551 22.21544885 15 19 C17.50031654 15.24952518 17.53603554 13.44143734 17 9 C14.8272578 6.36983839 13.05326212 4.52663106 10 3 C7.69 3 5.38 3 3 3 Z " fill="#133E74" transform="translate(156,186)"/>
<path d="M0 0 C5.28 0 10.56 0 16 0 C16 0.99 16 1.98 16 3 C11.71 3 7.42 3 3 3 C3 5.64 3 8.28 3 11 C6.96 11 10.92 11 15 11 C15 11.99 15 12.98 15 14 C11.04 14 7.08 14 3 14 C3 16.64 3 19.28 3 22 C7.62 22 12.24 22 17 22 C17 22.99 17 23.98 17 25 C11.39 25 5.78 25 0 25 C0 16.75 0 8.5 0 0 Z " fill="#0F3B71" transform="translate(208,186)"/>
<path d="M0 0 C5.28 0 10.56 0 16 0 C16 0.99 16 1.98 16 3 C11.71 3 7.42 3 3 3 C3 5.64 3 8.28 3 11 C6.63 11 10.26 11 14 11 C14 11.99 14 12.98 14 14 C10.37 14 6.74 14 3 14 C3 16.64 3 19.28 3 22 C7.29 22 11.58 22 16 22 C16 22.99 16 23.98 16 25 C10.72 25 5.44 25 0 25 C0 16.75 0 8.5 0 0 Z " fill="#0E3A71" transform="translate(355,186)"/>
<path d="M0 0 C0.99 0 1.98 0 3 0 C3 7.26 3 14.52 3 22 C6.96 22 10.92 22 15 22 C15 22.99 15 23.98 15 25 C10.05 25 5.1 25 0 25 C0 16.75 0 8.5 0 0 Z " fill="#0E3A70" transform="translate(289,186)"/>
<path d="M0 0 C5.41139241 -0.36075949 5.41139241 -0.36075949 7.9375 1.1875 C9 3 9 3 8.8125 5.5625 C8 8 8 8 6 10 C2.875 10.125 2.875 10.125 0 10 C0 6.7 0 3.4 0 0 Z " fill="#E6EAF0" transform="translate(187,189)"/>
<path d="M0 0 C0.99 0 1.98 0 3 0 C3 8.25 3 16.5 3 25 C2.01 25 1.02 25 0 25 C0 16.75 0 8.5 0 0 Z " fill="#0A376E" transform="translate(312,186)"/>
<path d="M0 0 C0.66 0 1.32 0 2 0 C3.65 3.63 5.3 7.26 7 11 C3.37 11 -0.26 11 -4 11 C-1.125 2.25 -1.125 2.25 0 0 Z " fill="#ECEFF3" transform="translate(312,147)"/>
<path d="M0 0 C0.66 0 1.32 0 2 0 C3.65 3.63 5.3 7.26 7 11 C3.37 11 -0.26 11 -4 11 C-1.125 2.25 -1.125 2.25 0 0 Z " fill="#ECEFF3" transform="translate(185,147)"/>
<path d="M0 0 C1.99097846 2.98646769 2.94124926 5.59687262 4 9 C1.69 9 -0.62 9 -3 9 C-2.5020163 5.26512223 -2.12508244 3.18762365 0 0 Z " fill="#D3DBE5" transform="translate(271,193)"/>
<path d="M0 0 C2 1 2 1 2.6328125 2.84765625 C2.79523438 3.57855469 2.95765625 4.30945313 3.125 5.0625 C3.29257813 5.79597656 3.46015625 6.52945313 3.6328125 7.28515625 C3.75398437 7.85105469 3.87515625 8.41695312 4 9 C1.69 9 -0.62 9 -3 9 C-2.01 6.03 -1.02 3.06 0 0 Z " fill="#D7DEE7" transform="translate(138,193)"/>
<path d="M0 0 C1.125 3.75 1.125 3.75 0 6 C-0.99 6 -1.98 6 -3 6 C-2.625 3.5625 -2.625 3.5625 -2 1 C-1.34 0.67 -0.68 0.34 0 0 Z " fill="#1A4377" transform="translate(264,205)"/>
</svg>
