<?xml version="1.0" encoding="UTF-8"?>
<svg version="1.1" xmlns="http://www.w3.org/2000/svg" width="100" height="100">
<path d="M0 0 C33 0 66 0 100 0 C100 33 100 66 100 100 C67 100 34 100 0 100 C0 67 0 34 0 0 Z " fill="#202142" transform="translate(0,0)"/>
<path d="M0 0 C22.44 0 44.88 0 68 0 C65.66728625 32.65799257 65.66728625 32.65799257 64.62231445 44.30908203 C64.43015957 46.45705375 64.24328632 48.6054494 64.05664062 50.75390625 C63.93259253 52.15627665 63.80825629 53.55862159 63.68359375 54.9609375 C63.57587646 56.17571777 63.46815918 57.39049805 63.35717773 58.64208984 C63.02221438 61.79115753 62.55670621 64.88327746 62 68 C58.31516323 69.15451922 54.62670901 70.29703672 50.9375 71.4375 C49.37999023 71.92573242 49.37999023 71.92573242 47.79101562 72.42382812 C36.99531563 75.74821828 30.12086298 76.01998909 19.1875 73 C17.47143555 72.58041016 17.47143555 72.58041016 15.72070312 72.15234375 C14.63080078 71.85457031 13.54089844 71.55679688 12.41796875 71.25 C11.42563232 70.98703125 10.4332959 70.7240625 9.41088867 70.453125 C7 69 7 69 5.74194336 66.20214844 C4.49421719 60.40180161 4.18043777 54.41724574 3.7109375 48.515625 C3.60278717 47.223078 3.49463684 45.93053101 3.38320923 44.59881592 C3.09747511 41.18105742 2.820346 37.76265285 2.54486084 34.34405518 C2.31818343 31.54956174 2.0853127 28.75560048 1.8521328 25.96164322 C1.37065475 20.19013744 0.89392782 14.41822881 0.42724609 8.64550781 C0.34445404 7.62515442 0.26166199 6.60480103 0.17636108 5.55352783 C0.04874794 3.70582029 0 1.85210915 0 0 Z " fill="#FDFDFD" transform="translate(16,12)"/>
<path d="M0 0 C11.88 0 23.76 0 36 0 C36 9.26491467 35.81483693 18.1915676 35 27.375 C34.85691406 29.06882812 34.85691406 29.06882812 34.7109375 30.796875 C34.47916913 33.53174171 34.24216018 36.26603736 34 39 C23.43887184 43.28675005 17.41109689 45.17393147 6.5 40.9375 C4.2725 39.9784375 4.2725 39.9784375 2 39 C2 35.37 2 31.74 2 28 C4.64 28 7.28 28 10 28 C10.33 29.65 10.66 31.3 11 33 C16.9589999 34.88178944 20.14210361 35.19671115 26 33 C26 30.03 26 27.06 26 24 C20.39 24 14.78 24 9 24 C9 21.36 9 18.72 9 16 C14.94 16 20.88 16 27 16 C27 13.36 27 10.72 27 8 C18.09 8 9.18 8 0 8 C0 5.36 0 2.72 0 0 Z " fill="#252646" transform="translate(32,28)"/>
</svg>
