<?xml version="1.0" encoding="UTF-8"?>
<svg version="1.1" xmlns="http://www.w3.org/2000/svg" width="100" height="100">
<path d="M0 0 C10.50093624 7.53963325 17.65293622 16.98125962 20.66796875 29.57421875 C22.00648667 41.95918671 21.0084809 54.0125928 13.48046875 64.32421875 C3.65135142 75.84369383 -5.1071444 81.05173006 -20.33203125 82.57421875 C-20.33203125 71.02421875 -20.33203125 59.47421875 -20.33203125 47.57421875 C-16.70203125 47.24421875 -13.07203125 46.91421875 -9.33203125 46.57421875 C-9.00203125 44.92421875 -8.67203125 43.27421875 -8.33203125 41.57421875 C-12.29203125 41.57421875 -16.25203125 41.57421875 -20.33203125 41.57421875 C-20.41353869 39.51238242 -20.47145065 37.44960526 -20.51953125 35.38671875 C-20.57173828 33.66388672 -20.57173828 33.66388672 -20.625 31.90625 C-20.2203029 27.30349493 -18.54885716 24.79104466 -15.33203125 21.57421875 C-12.6436374 21.30429969 -10.04061189 21.48684518 -7.33203125 21.57421875 C-7.33203125 19.92421875 -7.33203125 18.27421875 -7.33203125 16.57421875 C-15.1846833 16.70851106 -15.1846833 16.70851106 -22.45703125 19.26171875 C-26.23239524 23.918001 -26.6270105 29.11885212 -26.95703125 34.94921875 C-27.03179687 36.19445313 -27.1065625 37.4396875 -27.18359375 38.72265625 C-27.23257813 39.66367187 -27.2815625 40.6046875 -27.33203125 41.57421875 C-30.63203125 41.57421875 -33.93203125 41.57421875 -37.33203125 41.57421875 C-37.33203125 43.55421875 -37.33203125 45.53421875 -37.33203125 47.57421875 C-34.03203125 47.57421875 -30.73203125 47.57421875 -27.33203125 47.57421875 C-27.33203125 59.12421875 -27.33203125 70.67421875 -27.33203125 82.57421875 C-40.23600547 81.14044384 -49.46951188 76.7036937 -58.2734375 67.19140625 C-67.06152495 56.01869545 -68.55923743 43.31585991 -67.33203125 29.57421875 C-64.93816297 17.18323012 -57.4547665 7.87200463 -47.33203125 0.57421875 C-33.14217264 -7.61569964 -14.28614753 -8.73441181 0 0 Z M-54.33203125 13.57421875 C-62.11532408 24.29643129 -63.68583112 34.62958763 -62.33203125 47.57421875 C-59.90693031 58.09868594 -53.09577767 66.72976692 -44.08203125 72.57421875 C-40.20895537 74.75330518 -36.84700448 76.57421875 -32.33203125 76.57421875 C-32.33203125 68.65421875 -32.33203125 60.73421875 -32.33203125 52.57421875 C-35.63203125 52.57421875 -38.93203125 52.57421875 -42.33203125 52.57421875 C-42.33203125 47.29421875 -42.33203125 42.01421875 -42.33203125 36.57421875 C-39.03203125 36.57421875 -35.73203125 36.57421875 -32.33203125 36.57421875 C-32.2340625 35.64480469 -32.13609375 34.71539062 -32.03515625 33.7578125 C-30.45979538 20.73392391 -30.45979538 20.73392391 -26.33203125 15.57421875 C-21.3009218 12.33667702 -17.22471604 12.19609188 -11.45703125 12.38671875 C-10.67328125 12.40025391 -9.88953125 12.41378906 -9.08203125 12.42773438 C-7.16506343 12.46280086 -5.24845374 12.51659803 -3.33203125 12.57421875 C-2.83703125 19.50421875 -2.83703125 19.50421875 -2.33203125 26.57421875 C-6.53125 26.42773438 -6.53125 26.42773438 -10.73046875 26.28125 C-12.01824219 26.42626953 -12.01824219 26.42626953 -13.33203125 26.57421875 C-15.76148285 30.21839615 -15.493827 32.28663147 -15.33203125 36.57421875 C-11.04203125 36.57421875 -6.75203125 36.57421875 -2.33203125 36.57421875 C-2.85286458 39.27604167 -3.37369792 41.97786458 -3.89453125 44.6796875 C-4.4565726 47.91029187 -4.4565726 47.91029187 -4.33203125 52.57421875 C-7.96203125 52.57421875 -11.59203125 52.57421875 -15.33203125 52.57421875 C-15.33203125 60.49421875 -15.33203125 68.41421875 -15.33203125 76.57421875 C-5.17383255 74.88118563 1.80727334 70.33974711 8.66796875 62.57421875 C15.66967246 51.17346483 17.86288095 39.17829798 14.8671875 26.0703125 C10.62189014 14.88081739 2.4315043 6.63941195 -8.33203125 1.57421875 C-24.93211295 -5.21138749 -42.77928491 0.58251824 -54.33203125 13.57421875 Z " fill="#FFFFFF" transform="translate(73.33203125,11.42578125)"/>
</svg>
