<?xml version="1.0" encoding="UTF-8"?>
<svg version="1.1" xmlns="http://www.w3.org/2000/svg" width="100" height="100">
<path d="M0 0 C33 0 66 0 100 0 C100 33 100 66 100 100 C67 100 34 100 0 100 C0 67 0 34 0 0 Z " fill="#FCFCFD" transform="translate(0,0)"/>
<path d="M0 0 C33 0 66 0 100 0 C100 33 100 66 100 100 C67 100 34 100 0 100 C0 67 0 34 0 0 Z M9 5 C9.00517902 6.47544439 9.08781666 7.95063317 9.19921875 9.421875 C9.27213135 10.40623535 9.34504395 11.3905957 9.42016602 12.40478516 C9.50838623 13.50870605 9.59660645 14.61262695 9.6875 15.75 C9.77636475 16.90419434 9.86522949 18.05838867 9.95678711 19.24755859 C10.91216674 31.38002759 11.98758632 43.50264053 13.0625 55.625 C13.15026703 56.61512085 13.23803406 57.6052417 13.32846069 58.62536621 C13.58340255 61.4925642 13.84011787 64.35959667 14.09765625 67.2265625 C14.17366058 68.07886444 14.24966492 68.93116638 14.32797241 69.80929565 C14.81681151 75.21501738 15.38488354 80.60715176 16 86 C21.68184426 88.60320437 27.4288143 90.42531492 33.4375 92.125 C34.34048828 92.38925781 35.24347656 92.65351562 36.17382812 92.92578125 C37.06392578 93.17972656 37.95402344 93.43367188 38.87109375 93.6953125 C39.66443115 93.92234863 40.45776855 94.14938477 41.27514648 94.38330078 C48.1458832 95.93831207 52.71634385 96.21161907 59.52734375 94.1640625 C60.20172989 93.96525482 60.87611603 93.76644714 61.57093811 93.56161499 C63.69772682 92.93040713 65.81724018 92.27775903 67.9375 91.625 C69.38566838 91.19396857 70.8342338 90.76426872 72.28320312 90.3359375 C78.62227527 88.98072666 78.62227527 88.98072666 84 86 C84.34064243 83.44710198 84.62225927 80.91030802 84.8671875 78.34765625 C84.94653534 77.55269745 85.02588318 76.75773865 85.1076355 75.93869019 C85.36813701 73.31373399 85.62183599 70.6881733 85.875 68.0625 C86.05225837 66.2526708 86.22966848 64.44285646 86.40722656 62.63305664 C87.5679993 50.73889194 88.68185889 38.84033034 89.75 26.9375 C89.81475525 26.22498077 89.8795105 25.51246155 89.94622803 24.77835083 C90.12903785 22.75748893 90.3068098 20.73617323 90.484375 18.71484375 C90.58459961 17.58167725 90.68482422 16.44851074 90.78808594 15.28100586 C91.01046968 11.83790087 91.10395705 8.44906992 91 5 C89.28276594 3.28276594 87.09967833 3.87406506 84.80978394 3.86447144 C84.06689117 3.86649567 83.32399841 3.8685199 82.55859375 3.87060547 C81.77976837 3.86885315 81.00094299 3.86710083 80.19851685 3.86529541 C77.61148889 3.86087651 75.02452871 3.86381501 72.4375 3.8671875 C70.64770494 3.86651447 68.85790998 3.86554446 67.06811523 3.86428833 C63.31200289 3.86281131 59.55591428 3.86496606 55.79980469 3.86962891 C50.97399507 3.8753262 46.14824105 3.87204722 41.32243347 3.86605644 C37.62511777 3.86245095 33.92781536 3.86358936 30.23049927 3.86618423 C28.45061232 3.86685354 26.67072418 3.86602497 24.89083862 3.86370468 C22.40766178 3.86117835 19.92457626 3.86501846 17.44140625 3.87060547 C16.69851349 3.86858124 15.95562073 3.86655701 15.19021606 3.86447144 C11.80877786 3.5784155 11.80877786 3.5784155 9 5 Z " fill="#212243" transform="translate(0,0)"/>
<path d="M0 0 C15.84 0 31.68 0 48 0 C48 3.3 48 6.6 48 10 C35.46 10 22.92 10 10 10 C10.33 10.66 10.66 11.32 11 12 C11 14.64 11 17.28 11 20 C22.55 20 34.1 20 46 20 C46 33.66153846 46 33.66153846 45.5625 40.0625 C45.48128906 41.31160156 45.40007812 42.56070313 45.31640625 43.84765625 C45 47 45 47 44 50 C41.31644637 51.48548865 38.34813449 52.30052937 35.4375 53.25 C34.65052734 53.53101563 33.86355469 53.81203125 33.05273438 54.1015625 C25.1558377 56.73169132 19.11541124 55.54041466 11.125 53.3125 C10.01382813 53.01988281 8.90265625 52.72726563 7.7578125 52.42578125 C5 51 5 51 3.625 48.09765625 C2.93103964 44.65821521 2.8600019 41.49995251 3 38 C6.3 38 9.6 38 13 38 C13 39.65 13 41.3 13 43 C20.53181418 43.75667376 27.50280391 44.14364008 35 43 C35.33 38.71 35.66 34.42 36 30 C24.78 30 13.56 30 2 30 C1.67 26.720625 1.34 23.44125 1 20.0625 C0.89558594 19.04808838 0.79117187 18.03367676 0.68359375 16.98852539 C0.60238281 16.15828857 0.52117188 15.32805176 0.4375 14.47265625 C0.35371094 13.64000244 0.26992188 12.80734863 0.18359375 11.94946289 C-0.06389394 7.97353367 0 3.9836244 0 0 Z " fill="#242545" transform="translate(26,22)"/>
</svg>
