<?xml version="1.0" encoding="UTF-8"?>
<svg version="1.1" xmlns="http://www.w3.org/2000/svg" width="100" height="100">
<path d="M0 0 C1.07618088 -0.00761353 2.15236176 -0.01522705 3.26115417 -0.02307129 C5.53125701 -0.03384425 7.80140929 -0.03673685 10.0715332 -0.03222656 C13.5218492 -0.03125594 16.96992737 -0.0728779 20.41992188 -0.1171875 C22.63410999 -0.12239653 24.84830576 -0.12508266 27.0625 -0.125 C28.59267509 -0.1495929 28.59267509 -0.1495929 30.15376282 -0.17468262 C38.02832904 -0.09973426 44.72822428 1.80429136 50.64778137 7.22424316 C57.28563416 14.2957714 58.19738383 21.38958875 58.19921875 30.73828125 C58.21063904 32.35255257 58.21063904 32.35255257 58.22229004 33.99943542 C58.233063 36.26953826 58.2359556 38.53969054 58.23144531 40.80981445 C58.23047469 44.26013045 58.27209665 47.70820862 58.31640625 51.15820312 C58.32161528 53.37239124 58.32430141 55.58658701 58.32421875 57.80078125 C58.34061401 58.82089798 58.35700928 59.84101471 58.37390137 60.89204407 C58.29895301 68.76661029 56.39492739 75.46650553 50.97497559 81.38606262 C43.90344735 88.02391541 36.80963 88.93566508 27.4609375 88.9375 C26.38475662 88.94511353 25.30857574 88.95272705 24.19978333 88.96057129 C21.92968049 88.97134425 19.65952821 88.97423685 17.3894043 88.96972656 C13.9390883 88.96875594 10.49101013 89.0103779 7.04101562 89.0546875 C4.82682751 89.05989653 2.61263174 89.06258266 0.3984375 89.0625 C-0.62167923 89.07889526 -1.64179596 89.09529053 -2.69282532 89.11218262 C-10.56739154 89.03723426 -17.26728678 87.13320864 -23.18684387 81.71325684 C-29.82469666 74.6417286 -30.73644633 67.54791125 -30.73828125 58.19921875 C-30.74589478 57.12303787 -30.7535083 56.04685699 -30.76135254 54.93806458 C-30.7721255 52.66796174 -30.7750181 50.39780946 -30.77050781 48.12768555 C-30.76953719 44.67736955 -30.81115915 41.22929138 -30.85546875 37.77929688 C-30.86067778 35.56510876 -30.86336391 33.35091299 -30.86328125 31.13671875 C-30.87967651 30.11660202 -30.89607178 29.09648529 -30.91296387 28.04545593 C-30.83801551 20.17088971 -28.93398989 13.47099447 -23.51403809 7.55143738 C-16.44250985 0.91358459 -9.3486925 0.00183492 0 0 Z M-21.26953125 12.46875 C-25.97690755 19.29852717 -26.42509041 26.49218474 -26.4375 34.61328125 C-26.4408284 35.38250412 -26.4441568 36.15172699 -26.44758606 36.94425964 C-26.45262749 38.56545417 -26.45499525 40.18665897 -26.45483398 41.80786133 C-26.45701536 44.26336131 -26.4751865 46.71840773 -26.49414062 49.17382812 C-26.74176256 64.4203229 -26.74176256 64.4203229 -20.04296875 77.7421875 C-13.40065662 84.20893191 -4.97433395 84.62319636 3.875 84.63671875 C4.64422287 84.64004715 5.41344574 84.64337555 6.20597839 84.64680481 C7.82717292 84.65184624 9.44837772 84.654214 11.06958008 84.65405273 C13.52508006 84.65623411 15.98012648 84.67440525 18.43554688 84.69335938 C33.68204165 84.94098131 33.68204165 84.94098131 47.00390625 78.2421875 C53.47065066 71.59987537 53.88491511 63.1735527 53.8984375 54.32421875 C53.9017659 53.55499588 53.9050943 52.78577301 53.90852356 51.99324036 C53.91356499 50.37204583 53.91593275 48.75084103 53.91577148 47.12963867 C53.91795286 44.67413869 53.936124 42.21909227 53.95507812 39.76367188 C54.20270006 24.5171771 54.20270006 24.5171771 47.50390625 11.1953125 C40.86159412 4.72856809 32.43527145 4.31430364 23.5859375 4.30078125 C22.81671463 4.29745285 22.04749176 4.29412445 21.25495911 4.29069519 C19.63376458 4.28565376 18.01255978 4.283286 16.39135742 4.28344727 C13.93585744 4.28126589 11.48081102 4.26309475 9.02539062 4.24414062 C-7.54553409 4.00931636 -7.54553409 4.00931636 -21.26953125 12.46875 Z " fill="#FFFFFF" transform="translate(36.26953125,5.53125)"/>
<path d="M0 0 C5.48754632 3.26314896 10.09324715 8.11657747 12.48046875 14.08984375 C13.34464973 21.47631696 13.59877696 28.36162156 8.9765625 34.4765625 C4.78848315 38.99268984 0.58838782 42.72623253 -5.69140625 43.4609375 C-13.32184034 43.60255036 -18.77961123 43.41282043 -24.51953125 38.08984375 C-29.69450817 32.88826027 -31.82059569 28.69131284 -31.95703125 21.33984375 C-31.84088279 13.88311284 -30.21413025 9.76554455 -24.9921875 4.5703125 C-17.95448689 -1.64363689 -8.99931987 -3.2509171 0 0 Z M-23.83203125 10.71484375 C-27.46972847 15.83456577 -27.09722984 20.95981981 -26.51953125 27.08984375 C-24.10017849 32.10776059 -20.52035815 35.5894303 -15.51953125 38.08984375 C-9.96421877 38.59714025 -5.10122889 38.85244797 -0.01953125 36.40234375 C5.46787672 31.32782377 5.46787672 31.32782377 7.71875 24.48046875 C7.92218521 16.0604392 7.92218521 16.0604392 3.48046875 9.08984375 C-2.00344601 4.25877598 -5.32492524 3.73959632 -12.53515625 3.80859375 C-17.860552 4.31046351 -20.42173575 6.84369751 -23.83203125 10.71484375 Z " fill="#FFFFFF" transform="translate(59.51953125,28.91015625)"/>
<path d="M0 0 C3 0.125 3 0.125 4 1.125 C4.125 4.125 4.125 4.125 4 7.125 C3 8.125 3 8.125 0 8.25 C-3 8.125 -3 8.125 -4 7.125 C-4.125 4.125 -4.125 4.125 -4 1.125 C-3 0.125 -3 0.125 0 0 Z " fill="#FFFFFF" transform="translate(74,21.875)"/>
</svg>
