<?xml version="1.0" encoding="UTF-8"?>
<svg version="1.1" xmlns="http://www.w3.org/2000/svg" width="100" height="100">
<path d="M0 0 C0.71446289 -0.0087616 1.42892578 -0.01752319 2.16503906 -0.02655029 C4.51690151 -0.04848224 6.86686987 -0.03401601 9.21875 -0.01708984 C10.85872761 -0.02045982 12.49870279 -0.02531396 14.13867188 -0.03158569 C17.57185703 -0.03894853 21.00439072 -0.02827126 24.4375 -0.00488281 C28.83284357 0.02360553 33.22666065 0.00719826 37.62194824 -0.02274513 C41.00727794 -0.04083458 44.39224719 -0.03505273 47.77758789 -0.02210617 C49.39786969 -0.01877666 51.01818448 -0.02284327 52.63842773 -0.03450394 C54.90566356 -0.04724101 57.17044642 -0.02780132 59.4375 0 C60.72591797 0.00397797 62.01433594 0.00795593 63.34179688 0.01205444 C67.69943743 0.83135671 69.15094222 2.05802415 71.71875 5.64697266 C72.35366821 9.02392578 72.35366821 9.02392578 72.36572266 12.92822266 C72.37448425 13.64268555 72.38324585 14.35714844 72.39227295 15.09326172 C72.4142049 17.44512416 72.39973866 19.79509252 72.3828125 22.14697266 C72.38618248 23.78695027 72.39103661 25.42692545 72.39730835 27.06689453 C72.40467119 30.50007969 72.39399392 33.93261337 72.37060547 37.36572266 C72.34211713 41.76106623 72.35852439 46.15488331 72.38846779 50.5501709 C72.40655723 53.9355006 72.40077539 57.32046984 72.38782883 60.70581055 C72.38449932 62.32609234 72.38856592 63.94640713 72.40022659 65.56665039 C72.41296367 67.83388621 72.39352397 70.09866907 72.36572266 72.36572266 C72.35975571 74.29834961 72.35975571 74.29834961 72.35366821 76.27001953 C71.53436595 80.62766008 70.3076985 82.07916487 66.71875 84.64697266 C63.34179687 85.28189087 63.34179687 85.28189087 59.4375 85.29394531 C58.72303711 85.30270691 58.00857422 85.31146851 57.27246094 85.32049561 C54.92059849 85.34242756 52.57063013 85.32796132 50.21875 85.31103516 C48.57877239 85.31440513 46.93879721 85.31925927 45.29882812 85.32553101 C41.86564297 85.33289384 38.43310928 85.32221657 35 85.29882812 C30.60465643 85.27033979 26.21083935 85.28674705 21.81555176 85.31669044 C18.43022206 85.33477989 15.04525281 85.32899804 11.65991211 85.31605148 C10.03963031 85.31272198 8.41931552 85.31678858 6.79907227 85.32844925 C4.53183644 85.34118632 2.26705358 85.32174663 0 85.29394531 C-1.28841797 85.28996735 -2.57683594 85.28598938 -3.90429688 85.28189087 C-8.26193743 84.4625886 -9.71344222 83.23592116 -12.28125 79.64697266 C-12.91616821 76.27001953 -12.91616821 76.27001953 -12.92822266 72.36572266 C-12.93698425 71.65125977 -12.94574585 70.93679687 -12.95477295 70.20068359 C-12.9767049 67.84882115 -12.96223866 65.49885279 -12.9453125 63.14697266 C-12.94868248 61.50699504 -12.95353661 59.86701987 -12.95980835 58.22705078 C-12.96717119 54.79386562 -12.95649392 51.36133194 -12.93310547 47.92822266 C-12.90461713 43.53287909 -12.92102439 39.139062 -12.95096779 34.74377441 C-12.96905723 31.35844471 -12.96327539 27.97347547 -12.95032883 24.58813477 C-12.94699932 22.96785297 -12.95106592 21.34753818 -12.96272659 19.72729492 C-12.97546367 17.4600591 -12.95602397 15.19527624 -12.92822266 12.92822266 C-12.92424469 11.63980469 -12.92026672 10.35138672 -12.91616821 9.02392578 C-11.51600901 1.57686898 -7.00544459 0.02162918 0 0 Z M-7.28125 7.64697266 C-8.37096048 10.9161041 -8.42131248 13.34180917 -8.44238281 16.78320312 C-8.45199036 18.0481662 -8.4615979 19.31312927 -8.47149658 20.61642456 C-8.4763445 21.99900126 -8.48062335 23.38158005 -8.484375 24.76416016 C-8.49012891 26.18279014 -8.49588661 27.6014201 -8.50164795 29.02005005 C-8.51214889 31.99416465 -8.51799753 34.96825229 -8.52148438 37.94238281 C-8.52696822 41.74776555 -8.55099732 45.55279033 -8.57945633 49.35806084 C-8.59810715 52.28863558 -8.60328959 55.21912449 -8.60482025 58.14975357 C-8.60784165 59.55234866 -8.61585292 60.95494242 -8.62900543 62.3574791 C-8.64611554 64.32223141 -8.64233369 66.28713179 -8.63769531 68.25195312 C-8.64134094 69.36875458 -8.64498657 70.48555603 -8.64874268 71.63619995 C-8.23150484 75.05452191 -7.3738629 76.92906097 -5.28125 79.64697266 C-2.01211856 80.73668314 0.41358651 80.78703514 3.85498047 80.80810547 C5.11994354 80.81771301 6.38490662 80.82732056 7.6882019 80.83721924 C9.0707786 80.84206716 10.45335739 80.846346 11.8359375 80.85009766 C13.25456748 80.85585156 14.67319744 80.86160927 16.09182739 80.86737061 C19.06594199 80.87787155 22.04002963 80.88372018 25.01416016 80.88720703 C28.81954289 80.89269088 32.62456767 80.91671998 36.42983818 80.94517899 C39.36041292 80.9638298 42.29090184 80.96901225 45.22153091 80.97054291 C46.624126 80.97356431 48.02671976 80.98157558 49.42925644 80.99472809 C51.39400875 81.0118382 53.35890913 81.00805635 55.32373047 81.00341797 C56.99893265 81.00888641 56.99893265 81.00888641 58.70797729 81.01446533 C62.12629925 80.5972275 64.00083831 79.73958556 66.71875 77.64697266 C67.80846048 74.37784121 67.85881248 71.95213614 67.87988281 68.51074219 C67.88949036 67.24577911 67.8990979 65.98081604 67.90899658 64.67752075 C67.9138445 63.29494406 67.91812335 61.91236526 67.921875 60.52978516 C67.92762891 59.11115518 67.93338661 57.69252521 67.93914795 56.27389526 C67.94964889 53.29978066 67.95549753 50.32569303 67.95898438 47.3515625 C67.96446822 43.54617976 67.98849732 39.74115499 68.01695633 35.93588448 C68.03560715 33.00530973 68.04078959 30.07482082 68.04232025 27.14419174 C68.04534165 25.74159665 68.05335292 24.33900289 68.06650543 22.93646622 C68.08361554 20.97171391 68.07983369 19.00681352 68.07519531 17.04199219 C68.07884094 15.92519073 68.08248657 14.80838928 68.08624268 13.65774536 C67.66900484 10.2394234 66.8113629 8.36488434 64.71875 5.64697266 C61.44961856 4.55726218 59.02391349 4.50691017 55.58251953 4.48583984 C54.31755646 4.4762323 53.05259338 4.46662476 51.7492981 4.45672607 C50.3667214 4.45187815 48.98414261 4.44759931 47.6015625 4.44384766 C46.18293252 4.43809375 44.76430256 4.43233605 43.34567261 4.42657471 C40.37155801 4.41607377 37.39747037 4.41022513 34.42333984 4.40673828 C30.61795711 4.40125444 26.81293233 4.37722534 23.00766182 4.34876633 C20.07708708 4.33011551 17.14659816 4.32493307 14.21596909 4.3234024 C12.813374 4.320381 11.41078024 4.31236974 10.00824356 4.29921722 C8.04349125 4.28210711 6.07859087 4.28588896 4.11376953 4.29052734 C2.99696808 4.28688171 1.88016663 4.28323608 0.72952271 4.27947998 C-2.68879925 4.69671781 -4.56333831 5.55435975 -7.28125 7.64697266 Z " fill="#FFFFFF" transform="translate(20.28125,7.35302734375)"/>
<path d="M0 0 C6.66666667 0 13.33333333 0 20 0 C21.38832031 -0.06960937 21.38832031 -0.06960937 22.8046875 -0.140625 C27.57254008 -0.31047217 31.09566869 -0.40371933 35.5 1.5625 C41.05796975 6.98152051 42.25466093 10.74841066 42.390625 18.46484375 C42.37860198 21.29027397 42.3175322 24.11293398 42.25 26.9375 C42.22990977 28.39906415 42.21166344 29.86065486 42.1953125 31.32226562 C42.15492178 34.88270788 42.07661733 38.43942246 42 42 C36.72 42 31.44 42 26 42 C25.93941406 40.45828125 25.87882812 38.9165625 25.81640625 37.328125 C25.73198747 35.3020743 25.64734014 33.2760331 25.5625 31.25 C25.52318359 30.23421875 25.48386719 29.2184375 25.44335938 28.171875 C25.40146484 27.1921875 25.35957031 26.2125 25.31640625 25.203125 C25.27974854 24.30239258 25.24309082 23.40166016 25.20532227 22.47363281 C25.01693593 20.20403661 24.62633499 18.18437113 24 16 C20.95086772 14.98888907 20.95086772 14.98888907 18 16 C16.9446819 19.02930359 16.81330917 22.01583182 16.68359375 25.203125 C16.64169922 26.1828125 16.59980469 27.1625 16.55664062 28.171875 C16.51732422 29.18765625 16.47800781 30.2034375 16.4375 31.25 C16.39431641 32.28125 16.35113281 33.3125 16.30664062 34.375 C16.20074413 36.91651588 16.09988519 39.45824077 16 42 C10.72 42 5.44 42 0 42 C0 28.14 0 14.28 0 0 Z M4 4 C4 15.22 4 26.44 4 38 C6.64 38 9.28 38 12 38 C12.01458252 37.32420898 12.02916504 36.64841797 12.04418945 35.95214844 C12.11875411 32.88419478 12.21538655 29.81731924 12.3125 26.75 C12.33505859 25.68652344 12.35761719 24.62304688 12.38085938 23.52734375 C12.41630859 22.50253906 12.45175781 21.47773437 12.48828125 20.421875 C12.51446533 19.47924805 12.54064941 18.53662109 12.56762695 17.56542969 C13.07197247 14.57296065 13.90974663 13.17666331 16 11 C19.34505326 9.98194031 21.37145167 9.82857773 24.75 10.75 C27 12 27 12 29 15 C29.31884766 17.4519043 29.31884766 17.4519043 29.4140625 20.32421875 C29.45273438 21.35224609 29.49140625 22.38027344 29.53125 23.43945312 C29.5621875 24.51130859 29.593125 25.58316406 29.625 26.6875 C29.66367188 27.77095703 29.70234375 28.85441406 29.7421875 29.97070312 C29.83650509 32.64696467 29.92210005 35.32321843 30 38 C32.64 38 35.28 38 38 38 C38.05880804 34.83341337 38.09386406 31.66697007 38.125 28.5 C38.14175781 27.613125 38.15851563 26.72625 38.17578125 25.8125 C38.37806756 16.59839949 38.37806756 16.59839949 34.7199707 8.43969727 C31.7168966 5.7409015 29.04962076 4 25 4 C20.8114539 5.18353707 16.82506491 6.92808984 13 9 C12.67 7.35 12.34 5.7 12 4 C9.36 4 6.72 4 4 4 Z " fill="#FFFFFF" transform="translate(38,38)"/>
<path d="M0 0 C5.28 0 10.56 0 16 0 C16 13.86 16 27.72 16 42 C10.72 42 5.44 42 0 42 C0 28.14 0 14.28 0 0 Z M4 4 C4 15.22 4 26.44 4 38 C6.64 38 9.28 38 12 38 C12 26.78 12 15.56 12 4 C9.36 4 6.72 4 4 4 Z " fill="#FFFFFF" transform="translate(20,38)"/>
<path d="M0 0 C2.03695749 2.71594331 2.07130196 4.78786676 1.875 8.125 C1.5 10 1.5 10 0 12 C-4.42540977 13.77016391 -8.57459023 13.77016391 -13 12 C-15.03695749 9.28405669 -15.07130196 7.21213324 -14.875 3.875 C-14.5 2 -14.5 2 -13 0 C-8.57459023 -1.77016391 -4.42540977 -1.77016391 0 0 Z M-9.5 4 C-9.5 5.32 -9.5 6.64 -9.5 8 C-7.52 8 -5.54 8 -3.5 8 C-3.5 6.68 -3.5 5.36 -3.5 4 C-6.54913228 2.98888907 -6.54913228 2.98888907 -9.5 4 Z " fill="#FFFFFF" transform="translate(34.5,23)"/>
</svg>
