<?xml version="1.0" encoding="UTF-8"?>
<svg version="1.1" xmlns="http://www.w3.org/2000/svg" width="100" height="100">
<path d="M0 0 C33 0 66 0 100 0 C100 33 100 66 100 100 C67 100 34 100 0 100 C0 67 0 34 0 0 Z " fill="#202141" transform="translate(0,0)"/>
<path d="M0 0 C3.98506187 3.33425759 6.46839587 5.89659066 7.37719727 11.01611328 C7.37647217 12.2998584 7.37574707 13.58360352 7.375 14.90625 C7.37741196 15.59854706 7.37982391 16.29084412 7.38230896 17.00411987 C7.38133496 18.45804613 7.36804815 19.91201155 7.34301758 21.36572266 C7.30856886 23.58754312 7.32240956 25.80540996 7.34179688 28.02734375 C7.33490101 29.44532936 7.32523096 30.86330477 7.3125 32.28125 C7.30162354 33.56273926 7.29074707 34.84422852 7.27954102 36.16455078 C6.74609375 39.4609375 6.74609375 39.4609375 5.12280273 41.88037109 C1.97976653 43.97056282 -0.08801351 43.9442035 -3.84765625 43.9296875 C-5.12511719 43.94386719 -6.40257812 43.95804688 -7.71875 43.97265625 C-9.73978512 43.97019817 -11.76072422 43.96090631 -13.78173828 43.95166016 C-15.74125606 43.94927689 -17.70075773 43.97043837 -19.66015625 43.9921875 C-20.82869141 43.98767578 -21.99722656 43.98316406 -23.20117188 43.97851562 C-26.89256678 44.56186466 -28.0545519 45.48487422 -30.25390625 48.4609375 C-30.70290785 51.16645995 -30.94760259 53.50324341 -31.00390625 56.2109375 C-31.04837891 57.25701172 -31.04837891 57.25701172 -31.09375 58.32421875 C-31.16409083 60.03584563 -31.21130571 61.74839565 -31.25390625 63.4609375 C-47.17513617 64.49304604 -47.17513617 64.49304604 -51.56640625 60.9609375 C-56.97258753 54.87544548 -57.78134668 48.30244571 -57.53125 40.359375 C-56.91188492 33.88657374 -54.92210281 28.90903114 -49.83764648 24.69580078 C-43.82743447 21.82330221 -36.33963989 22.87341949 -29.81640625 23.0859375 C-28.21033629 23.1160665 -26.60421208 23.14343716 -24.99804688 23.16796875 C-21.08198406 23.23375545 -17.16854605 23.33710673 -13.25390625 23.4609375 C-13.25390625 22.8009375 -13.25390625 22.1409375 -13.25390625 21.4609375 C-19.85390625 21.4609375 -26.45390625 21.4609375 -33.25390625 21.4609375 C-34.05747768 7.3984375 -34.05747768 7.3984375 -30.69140625 3.2734375 C-22.50721951 -4.21140765 -9.77617205 -5.28319691 0 0 Z " fill="#FDFDFD" transform="translate(61.25390625,6.5390625)"/>
<path d="M0 0 C2.39652528 -0.08139142 4.79025436 -0.14067009 7.1875 -0.1875 C7.86103516 -0.21263672 8.53457031 -0.23777344 9.22851562 -0.26367188 C13.72207071 -0.32943122 16.41829982 0.27790786 20 3 C25.46840298 8.78088315 26.41812363 14.46041439 26.25 22.18359375 C25.72880901 28.05513602 24.2846594 32.45840872 20.5 37 C16.33178861 40.33456911 12.58559089 40.13490214 7.48828125 40.09765625 C6.76005661 40.0962413 6.03183197 40.09482635 5.28153992 40.09336853 C2.95848461 40.08777659 0.63552612 40.07522562 -1.6875 40.0625 C-3.26367048 40.05748396 -4.83984248 40.05292123 -6.41601562 40.04882812 C-10.27738098 40.0378098 -14.13867408 40.02055074 -18 40 C-18 40.66 -18 41.32 -18 42 C-11.4 42 -4.8 42 2 42 C2.80357143 56.0625 2.80357143 56.0625 -0.375 60.1875 C-5.54051062 64.98924226 -12.28563815 66.11194762 -19.125 66.375 C-25.35476145 66.13088709 -30.60128426 64.75132429 -35.19921875 60.36328125 C-39.47356107 55.18488001 -38.78688526 48.76090516 -38.61743164 42.39208984 C-38.5622638 40.24078931 -38.55590584 38.09334414 -38.55664062 35.94140625 C-38.44716126 25.75454825 -38.44716126 25.75454825 -36.87451172 23.10083008 C-34.08060498 21.46007396 -31.72633867 21.59553151 -28.50390625 21.55859375 C-27.22322266 21.53216797 -25.94253906 21.50574219 -24.62304688 21.47851562 C-23.26954408 21.46362759 -21.91602725 21.44996819 -20.5625 21.4375 C-17.91747257 21.40609089 -15.27372264 21.36045289 -12.62890625 21.30859375 C-11.45400635 21.29626709 -10.27910645 21.28394043 -9.06860352 21.27124023 C-6.11070561 21.0097855 -4.40836747 20.70701205 -2 19 C-0.76240177 15.28720531 -0.64391103 11.68693654 -0.4375 7.8125 C-0.37272461 6.68811523 -0.37272461 6.68811523 -0.30664062 5.54101562 C-0.20077315 3.69421625 -0.0999024 1.84713166 0 0 Z " fill="#FDFDFD" transform="translate(70,30)"/>
<path d="M0 0 C2.625 0.375 2.625 0.375 5 1 C5.625 3.375 5.625 3.375 6 6 C5.34 6.66 4.68 7.32 4 8 C1.375 7.625 1.375 7.625 -1 7 C-1.625 4.625 -1.625 4.625 -2 2 C-1.34 1.34 -0.68 0.68 0 0 Z " fill="#2D2E4D" transform="translate(58,78)"/>
<path d="M0 0 C2.625 0.375 2.625 0.375 5 1 C5.625 3.375 5.625 3.375 6 6 C5.34 6.66 4.68 7.32 4 8 C1.375 7.625 1.375 7.625 -1 7 C-1.625 4.625 -1.625 4.625 -2 2 C-1.34 1.34 -0.68 0.68 0 0 Z " fill="#2D2E4D" transform="translate(38,14)"/>
<path d="M0 0 C0.556875 0.268125 1.11375 0.53625 1.6875 0.8125 C0.264375 1.67875 0.264375 1.67875 -1.1875 2.5625 C-4.07384098 4.64066551 -5.15345741 5.56718075 -6.3125 8.8125 C-7.125 7.125 -7.125 7.125 -7.3125 4.8125 C-3.35769774 -0.27224576 -3.35769774 -0.27224576 0 0 Z " fill="#373856" transform="translate(37.3125,50.1875)"/>
</svg>
